<?xml version="1.0" encoding="UTF-8" standalone="no"?>
<!-- Created with Inkscape (http://www.inkscape.org/) -->

<svg
   width="53.353218mm"
   height="79.66082mm"
   viewBox="0 0 53.353218 79.66082"
   version="1.1"
   id="svg1"
   xml:space="preserve"
   xmlns="http://www.w3.org/2000/svg"
   xmlns:svg="http://www.w3.org/2000/svg"><defs
     id="defs1"><linearGradient
       id="swatch2"><stop
         style="stop-color:#000000;stop-opacity:1;"
         offset="0"
         id="stop2" /></linearGradient><linearGradient
       id="swatch1"><stop
         style="stop-color:#d9ecb3;stop-opacity:1;"
         offset="0"
         id="stop1" /></linearGradient></defs><g
     id="layer1"
     transform="translate(-14.227405,-156.04968)"><g
       id="g16"><g
         id="g26"
         transform="translate(1.798807,-52.165402)"><circle
           style="fill:none;stroke:#000000;stroke-width:4;stroke-dasharray:none;stroke-opacity:1"
           id="path1"
           cx="102.00842"
           cy="87.048981"
           r="5.8772206" /><path
           d="m 107.62617,129.68222 -11.235497,0.0562 v 5.6129 c 0,3.1121 2.505644,5.61723 5.617747,5.61723 3.1121,0 5.61775,-2.50513 5.61775,-5.61723 z"
           style="fill:none;stroke:#000000;stroke-width:4;stroke-linecap:round;stroke-linejoin:round;stroke-dasharray:none"
           id="path5" /><path
           d="m 102.00842,98.791852 c -3.112103,0 -5.617747,2.505648 -5.617747,5.617768 v 8.26776 h 11.235497 v -8.26776 c 0,-3.11212 -2.50565,-5.617768 -5.61775,-5.617768 z"
           style="fill:none;stroke:#000000;stroke-width:4;stroke-linecap:round;stroke-linejoin:round;stroke-dasharray:none"
           id="path4" /><text
           xml:space="preserve"
           style="font-style:normal;font-variant:normal;font-weight:bold;font-stretch:normal;font-size:13.2772px;font-family:Calibri;-inkscape-font-specification:'Calibri Bold';fill:#000000;fill-opacity:1;stroke:#000000;stroke-width:0.8;stroke-linecap:round;stroke-linejoin:round;stroke-dasharray:none;stroke-opacity:1"
           x="85.671242"
           y="125.26558"
           id="text5"><tspan
             id="tspan5"
             style="font-style:normal;font-variant:normal;font-weight:bold;font-stretch:normal;font-family:Calibri;-inkscape-font-specification:'Calibri Bold';fill:#000000;fill-opacity:1;stroke:#000000;stroke-width:0.8;stroke-dasharray:none"
             x="85.671242"
             y="125.26558">FAMY</tspan></text><path
           style="fill:none;fill-opacity:1;stroke:#000000;stroke-width:4.05197;stroke-linecap:round;stroke-linejoin:round;stroke-dasharray:none;stroke-opacity:1"
           d="m 107.45823,112.27796 c 6.69923,1.70594 10.83491,-5.43332 10.55748,-10.66575 -0.37355,-7.045329 -5.17095,-10.114872 -9.87208,-9.436359 -0.71782,0.103603 -5.4536,1.045849 -4.63545,0.607374"
           id="path8" /></g><g
         id="g25"
         transform="translate(3.5976139,-50.366595)"><circle
           style="fill:none;stroke:#1a1a1a;stroke-width:4;stroke-dasharray:none;stroke-opacity:1"
           id="circle17"
           cx="44.452747"
           cy="86.095016"
           r="5.8772206" /><path
           d="m 50.070495,128.72826 -11.235497,0.0562 v 5.6129 c 0,3.1121 2.505644,5.61723 5.617747,5.61723 3.1121,0 5.61775,-2.50513 5.61775,-5.61723 z"
           style="fill:none;stroke:#1a1a1a;stroke-width:4;stroke-linecap:round;stroke-linejoin:round;stroke-dasharray:none"
           id="path17" /><path
           d="m 44.452745,97.837891 c -3.112103,0 -5.617747,2.505649 -5.617747,5.617769 v 8.26776 h 11.235497 v -8.26776 c 0,-3.11212 -2.50565,-5.617769 -5.61775,-5.617769 z"
           style="fill:none;stroke:#1a1a1a;stroke-width:4;stroke-linecap:round;stroke-linejoin:round;stroke-dasharray:none"
           id="path18" /><text
           xml:space="preserve"
           style="font-style:normal;font-variant:normal;font-weight:bold;font-stretch:normal;font-size:13.2772px;font-family:Calibri;-inkscape-font-specification:'Calibri Bold';fill:#1a1a1a;fill-opacity:1;stroke:#1a1a1a;stroke-width:0.8;stroke-linecap:round;stroke-linejoin:round;stroke-dasharray:none;stroke-opacity:1"
           x="28.115568"
           y="124.31161"
           id="text18"><tspan
             id="tspan18"
             style="font-style:normal;font-variant:normal;font-weight:bold;font-stretch:normal;font-family:Calibri;-inkscape-font-specification:'Calibri Bold';fill:#1a1a1a;fill-opacity:1;stroke:#1a1a1a;stroke-width:0.8;stroke-dasharray:none"
             x="28.115568"
             y="124.31161">FAMY</tspan></text><path
           style="fill:none;fill-opacity:1;stroke:#1a1a1a;stroke-width:4.05197;stroke-linecap:round;stroke-linejoin:round;stroke-dasharray:none;stroke-opacity:1"
           d="m 49.902555,111.324 c 6.69923,1.70594 10.83491,-5.43332 10.55748,-10.66575 -0.37355,-7.04533 -5.17095,-10.114873 -9.87208,-9.43636 -0.71782,0.103603 -5.4536,1.045849 -4.63545,0.607374"
           id="path19" /></g><g
         id="g29"><rect
           style="fill:#000000;fill-opacity:1;stroke:#ffffff;stroke-width:1.04662;stroke-linecap:round;stroke-linejoin:round;stroke-dasharray:none;stroke-opacity:1"
           id="rect22"
           width="52.306599"
           height="78.614189"
           x="14.750715"
           y="156.573"
           ry="2.9116366" /><g
           id="g22"
           transform="translate(-0.20915844,-0.09263374)"><circle
             style="fill:none;stroke:#ffffff;stroke-width:4;stroke-dasharray:none;stroke-opacity:1"
             id="circle19"
             cx="40.000927"
             cy="171.95155"
             r="5.8772206" /><path
             d="m 45.618675,214.58479 -11.235497,0.0562 v 5.6129 c 0,3.1121 2.505644,5.61723 5.617747,5.61723 3.1121,0 5.61775,-2.50513 5.61775,-5.61723 z"
             style="fill:none;stroke:#ffffff;stroke-width:4;stroke-linecap:round;stroke-linejoin:round;stroke-dasharray:none"
             id="path20" /><path
             d="m 40.000925,183.69442 c -3.112103,0 -5.617747,2.50565 -5.617747,5.61777 v 8.26776 h 11.235497 v -8.26776 c 0,-3.11212 -2.50565,-5.61777 -5.61775,-5.61777 z"
             style="fill:none;stroke:#ffffff;stroke-width:4;stroke-linecap:round;stroke-linejoin:round;stroke-dasharray:none"
             id="path21" /><text
             xml:space="preserve"
             style="font-style:normal;font-variant:normal;font-weight:bold;font-stretch:normal;font-size:13.2772px;font-family:Calibri;-inkscape-font-specification:'Calibri Bold';fill:#ffffff;fill-opacity:1;stroke:#ffffff;stroke-width:0.8;stroke-linecap:round;stroke-linejoin:round;stroke-dasharray:none;stroke-opacity:1"
             x="23.663748"
             y="210.16814"
             id="text21"><tspan
               id="tspan21"
               style="font-style:normal;font-variant:normal;font-weight:bold;font-stretch:normal;font-family:Calibri;-inkscape-font-specification:'Calibri Bold';fill:#ffffff;fill-opacity:1;stroke:#ffffff;stroke-width:0.8;stroke-dasharray:none"
               x="23.663748"
               y="210.16814">FAMY</tspan></text><path
             style="fill:none;fill-opacity:1;stroke:#ffffff;stroke-width:4.05197;stroke-linecap:round;stroke-linejoin:round;stroke-dasharray:none;stroke-opacity:1"
             d="m 45.450735,197.18053 c 6.69923,1.70594 10.83491,-5.43332 10.55748,-10.66575 -0.37355,-7.04533 -5.17095,-10.11487 -9.87208,-9.43636 -0.71782,0.1036 -5.4536,1.04585 -4.63545,0.60738"
             id="path22" /></g></g></g></g></svg>
